<svg xmlns="http://www.w3.org/2000/svg" xmlns:xlink="http://www.w3.org/1999/xlink" width="500" zoomAndPan="magnify" viewBox="0 0 375 374.999991" height="500" preserveAspectRatio="xMidYMid meet" version="1.0"><defs><clipPath id="aff77d5008"><path d="M 112.5 112.53125 L 262.5 112.53125 L 262.5 262.53125 L 112.5 262.53125 Z M 112.5 112.53125 " clip-rule="nonzero"/></clipPath></defs><g clip-path="url(#aff77d5008)"><path fill="#46cc6b" d="M 262.472656 187.554688 C 262.472656 228.957031 228.925781 262.519531 187.546875 262.519531 C 182.078125 262.527344 176.675781 261.941406 171.339844 260.761719 C 166 259.582031 160.855469 257.835938 155.898438 255.527344 C 152.910156 254.128906 149.773438 253.226562 146.496094 252.824219 C 143.21875 252.425781 139.960938 252.542969 136.722656 253.179688 L 125.023438 255.484375 C 120.066406 256.460938 116.207031 251.234375 118.59375 246.777344 C 123.21875 238.152344 123.589844 227.839844 119.484375 218.953125 C 117.226562 214.058594 115.519531 208.980469 114.363281 203.71875 C 113.203125 198.453125 112.621094 193.125 112.617188 187.734375 C 112.519531 146.296875 146.015625 112.652344 187.433594 112.59375 C 228.867188 112.53125 262.472656 146.117188 262.472656 187.554688 Z M 262.472656 187.554688 " fill-opacity="1" fill-rule="nonzero"/></g><path fill="#ffffff" d="M 251.683594 187.554688 C 251.683594 188.605469 251.660156 189.65625 251.605469 190.703125 C 251.554688 191.753906 251.476562 192.800781 251.375 193.84375 C 251.273438 194.890625 251.144531 195.933594 250.992188 196.972656 C 250.835938 198.011719 250.65625 199.042969 250.453125 200.074219 C 250.246094 201.105469 250.015625 202.128906 249.761719 203.148438 C 249.507812 204.167969 249.226562 205.179688 248.921875 206.183594 C 248.617188 207.1875 248.289062 208.183594 247.933594 209.175781 C 247.582031 210.164062 247.203125 211.140625 246.800781 212.113281 C 246.402344 213.082031 245.976562 214.042969 245.527344 214.992188 C 245.078125 215.941406 244.605469 216.878906 244.109375 217.804688 C 243.617188 218.730469 243.097656 219.644531 242.558594 220.546875 C 242.019531 221.445312 241.457031 222.332031 240.875 223.207031 C 240.292969 224.078125 239.6875 224.9375 239.0625 225.78125 C 238.4375 226.625 237.792969 227.453125 237.125 228.265625 C 236.460938 229.078125 235.773438 229.871094 235.070312 230.648438 C 234.363281 231.425781 233.640625 232.1875 232.898438 232.929688 C 232.15625 233.671875 231.394531 234.398438 230.617188 235.101562 C 229.839844 235.808594 229.046875 236.492188 228.234375 237.160156 C 227.421875 237.824219 226.597656 238.472656 225.753906 239.097656 C 224.910156 239.722656 224.050781 240.328125 223.179688 240.910156 C 222.304688 241.496094 221.417969 242.054688 220.519531 242.597656 C 219.617188 243.136719 218.707031 243.652344 217.78125 244.148438 C 216.855469 244.644531 215.917969 245.117188 214.96875 245.5625 C 214.019531 246.011719 213.058594 246.4375 212.089844 246.839844 C 211.121094 247.242188 210.140625 247.621094 209.152344 247.972656 C 208.164062 248.328125 207.167969 248.65625 206.164062 248.960938 C 205.160156 249.265625 204.148438 249.546875 203.128906 249.800781 C 202.113281 250.058594 201.085938 250.289062 200.058594 250.492188 C 199.027344 250.695312 197.996094 250.875 196.957031 251.03125 C 195.917969 251.183594 194.875 251.3125 193.832031 251.417969 C 192.789062 251.519531 191.742188 251.597656 190.691406 251.648438 C 189.644531 251.699219 188.59375 251.726562 187.546875 251.726562 C 186.496094 251.726562 185.445312 251.699219 184.398438 251.648438 C 183.347656 251.597656 182.304688 251.519531 181.257812 251.417969 C 180.214844 251.3125 179.171875 251.183594 178.132812 251.03125 C 177.09375 250.875 176.0625 250.695312 175.03125 250.492188 C 174.003906 250.289062 172.980469 250.058594 171.960938 249.800781 C 170.941406 249.546875 169.929688 249.265625 168.925781 248.960938 C 167.921875 248.65625 166.925781 248.328125 165.9375 247.972656 C 164.949219 247.621094 163.96875 247.242188 163 246.839844 C 162.03125 246.4375 161.070312 246.011719 160.121094 245.5625 C 159.171875 245.117188 158.234375 244.644531 157.308594 244.148438 C 156.382812 243.652344 155.472656 243.136719 154.570312 242.597656 C 153.671875 242.054688 152.785156 241.496094 151.910156 240.910156 C 151.039062 240.328125 150.179688 239.722656 149.335938 239.097656 C 148.496094 238.472656 147.667969 237.824219 146.855469 237.160156 C 146.042969 236.492188 145.25 235.808594 144.472656 235.101562 C 143.695312 234.398438 142.933594 233.671875 142.191406 232.929688 C 141.449219 232.1875 140.726562 231.425781 140.019531 230.648438 C 139.316406 229.871094 138.628906 229.078125 137.964844 228.265625 C 137.300781 227.453125 136.652344 226.625 136.027344 225.78125 C 135.402344 224.9375 134.796875 224.078125 134.214844 223.207031 C 133.632812 222.332031 133.070312 221.445312 132.53125 220.546875 C 131.992188 219.644531 131.472656 218.730469 130.980469 217.804688 C 130.484375 216.878906 130.011719 215.941406 129.5625 214.992188 C 129.113281 214.042969 128.691406 213.082031 128.289062 212.113281 C 127.886719 211.140625 127.507812 210.164062 127.15625 209.175781 C 126.800781 208.183594 126.472656 207.1875 126.167969 206.183594 C 125.863281 205.179688 125.582031 204.167969 125.328125 203.148438 C 125.074219 202.128906 124.84375 201.105469 124.636719 200.074219 C 124.433594 199.042969 124.253906 198.011719 124.101562 196.972656 C 123.945312 195.933594 123.816406 194.890625 123.714844 193.84375 C 123.613281 192.800781 123.535156 191.753906 123.484375 190.703125 C 123.433594 189.65625 123.40625 188.605469 123.40625 187.554688 C 123.40625 186.503906 123.433594 185.457031 123.484375 184.40625 C 123.535156 183.359375 123.613281 182.3125 123.714844 181.265625 C 123.816406 180.222656 123.945312 179.179688 124.101562 178.140625 C 124.253906 177.101562 124.433594 176.066406 124.636719 175.035156 C 124.84375 174.007812 125.074219 172.984375 125.328125 171.964844 C 125.582031 170.945312 125.863281 169.933594 126.167969 168.929688 C 126.472656 167.921875 126.800781 166.925781 127.15625 165.9375 C 127.507812 164.949219 127.886719 163.96875 128.289062 163 C 128.691406 162.027344 129.113281 161.070312 129.5625 160.121094 C 130.011719 159.171875 130.484375 158.234375 130.980469 157.308594 C 131.472656 156.378906 131.992188 155.46875 132.53125 154.566406 C 133.070312 153.664062 133.632812 152.777344 134.214844 151.90625 C 134.796875 151.03125 135.402344 150.171875 136.027344 149.332031 C 136.652344 148.488281 137.300781 147.660156 137.964844 146.847656 C 138.628906 146.035156 139.316406 145.242188 140.019531 144.460938 C 140.726562 143.683594 141.449219 142.925781 142.191406 142.179688 C 142.933594 141.4375 143.695312 140.714844 144.472656 140.007812 C 145.25 139.304688 146.042969 138.617188 146.855469 137.953125 C 147.667969 137.285156 148.496094 136.640625 149.335938 136.015625 C 150.179688 135.390625 151.039062 134.785156 151.910156 134.199219 C 152.785156 133.617188 153.671875 133.054688 154.570312 132.515625 C 155.472656 131.976562 156.382812 131.457031 157.308594 130.964844 C 158.234375 130.46875 159.171875 129.996094 160.121094 129.546875 C 161.070312 129.097656 162.03125 128.671875 163 128.269531 C 163.96875 127.871094 164.949219 127.492188 165.9375 127.136719 C 166.925781 126.785156 167.921875 126.453125 168.925781 126.148438 C 169.929688 125.84375 170.941406 125.566406 171.960938 125.308594 C 172.980469 125.054688 174.003906 124.824219 175.03125 124.621094 C 176.0625 124.414062 177.09375 124.234375 178.132812 124.082031 C 179.171875 123.925781 180.214844 123.796875 181.257812 123.695312 C 182.304688 123.59375 183.347656 123.515625 184.398438 123.464844 C 185.445312 123.414062 186.496094 123.386719 187.546875 123.386719 C 188.59375 123.386719 189.644531 123.414062 190.691406 123.464844 C 191.742188 123.515625 192.789062 123.59375 193.832031 123.695312 C 194.875 123.796875 195.917969 123.925781 196.957031 124.082031 C 197.996094 124.234375 199.027344 124.414062 200.058594 124.621094 C 201.085938 124.824219 202.113281 125.054688 203.128906 125.308594 C 204.148438 125.566406 205.160156 125.84375 206.164062 126.148438 C 207.167969 126.453125 208.164062 126.785156 209.152344 127.136719 C 210.140625 127.492188 211.121094 127.871094 212.089844 128.269531 C 213.058594 128.671875 214.019531 129.097656 214.96875 129.546875 C 215.917969 129.996094 216.855469 130.46875 217.78125 130.964844 C 218.707031 131.457031 219.617188 131.976562 220.519531 132.515625 C 221.417969 133.054688 222.304688 133.617188 223.179688 134.199219 C 224.050781 134.785156 224.910156 135.390625 225.753906 136.015625 C 226.597656 136.640625 227.421875 137.285156 228.234375 137.953125 C 229.046875 138.617188 229.839844 139.304688 230.617188 140.007812 C 231.394531 140.714844 232.15625 141.4375 232.898438 142.179688 C 233.640625 142.925781 234.363281 143.683594 235.070312 144.460938 C 235.773438 145.242188 236.460938 146.035156 237.125 146.847656 C 237.792969 147.660156 238.4375 148.488281 239.0625 149.332031 C 239.6875 150.171875 240.292969 151.03125 240.875 151.90625 C 241.457031 152.777344 242.019531 153.664062 242.558594 154.566406 C 243.097656 155.46875 243.617188 156.378906 244.109375 157.308594 C 244.605469 158.234375 245.078125 159.171875 245.527344 160.121094 C 245.976562 161.070312 246.402344 162.027344 246.800781 163 C 247.203125 163.96875 247.582031 164.949219 247.933594 165.9375 C 248.289062 166.925781 248.617188 167.921875 248.921875 168.929688 C 249.226562 169.933594 249.507812 170.945312 249.761719 171.964844 C 250.015625 172.984375 250.246094 174.007812 250.453125 175.035156 C 250.65625 176.066406 250.835938 177.101562 250.992188 178.140625 C 251.144531 179.179688 251.273438 180.222656 251.375 181.265625 C 251.476562 182.3125 251.554688 183.359375 251.605469 184.40625 C 251.660156 185.457031 251.683594 186.503906 251.683594 187.554688 Z M 251.683594 187.554688 " fill-opacity="1" fill-rule="nonzero"/><path fill="#46cc6b" d="M 240.230469 187.554688 C 240.230469 189.28125 240.144531 191.003906 239.976562 192.722656 C 239.808594 194.441406 239.554688 196.144531 239.21875 197.839844 C 238.882812 199.53125 238.464844 201.203125 237.960938 202.855469 C 237.460938 204.507812 236.882812 206.132812 236.21875 207.726562 C 235.558594 209.324219 234.824219 210.882812 234.011719 212.402344 C 233.195312 213.925781 232.308594 215.40625 231.351562 216.839844 C 230.394531 218.277344 229.367188 219.660156 228.273438 220.996094 C 227.175781 222.328125 226.019531 223.605469 224.800781 224.828125 C 223.578125 226.046875 222.300781 227.207031 220.96875 228.300781 C 219.636719 229.398438 218.25 230.425781 216.816406 231.382812 C 215.382812 232.34375 213.902344 233.230469 212.382812 234.042969 C 210.859375 234.855469 209.300781 235.59375 207.707031 236.253906 C 206.113281 236.914062 204.492188 237.496094 202.839844 237.996094 C 201.1875 238.496094 199.515625 238.917969 197.824219 239.253906 C 196.132812 239.589844 194.425781 239.84375 192.710938 240.011719 C 190.992188 240.183594 189.269531 240.265625 187.546875 240.265625 C 185.820312 240.265625 184.097656 240.183594 182.382812 240.011719 C 180.664062 239.84375 178.960938 239.589844 177.265625 239.253906 C 175.574219 238.917969 173.902344 238.496094 172.25 237.996094 C 170.601562 237.496094 168.976562 236.914062 167.382812 236.253906 C 165.789062 235.59375 164.230469 234.855469 162.710938 234.042969 C 161.1875 233.230469 159.710938 232.34375 158.273438 231.382812 C 156.839844 230.425781 155.457031 229.398438 154.121094 228.300781 C 152.789062 227.207031 151.511719 226.046875 150.289062 224.828125 C 149.070312 223.605469 147.914062 222.328125 146.820312 220.996094 C 145.722656 219.660156 144.695312 218.277344 143.738281 216.839844 C 142.78125 215.40625 141.894531 213.925781 141.082031 212.402344 C 140.265625 210.882812 139.53125 209.324219 138.871094 207.726562 C 138.210938 206.132812 137.628906 204.507812 137.128906 202.855469 C 136.628906 201.203125 136.207031 199.53125 135.871094 197.839844 C 135.535156 196.144531 135.28125 194.441406 135.113281 192.722656 C 134.945312 191.003906 134.859375 189.28125 134.859375 187.554688 C 134.859375 185.828125 134.945312 184.105469 135.113281 182.390625 C 135.28125 180.671875 135.535156 178.964844 135.871094 177.273438 C 136.207031 175.578125 136.628906 173.90625 137.128906 172.253906 C 137.628906 170.601562 138.210938 168.980469 138.871094 167.382812 C 139.53125 165.789062 140.265625 164.230469 141.082031 162.707031 C 141.894531 161.1875 142.78125 159.707031 143.738281 158.273438 C 144.695312 156.835938 145.722656 155.449219 146.820312 154.117188 C 147.914062 152.78125 149.070312 151.503906 150.289062 150.285156 C 151.511719 149.0625 152.789062 147.90625 154.121094 146.808594 C 155.457031 145.714844 156.839844 144.6875 158.273438 143.730469 C 159.710938 142.769531 161.1875 141.882812 162.710938 141.070312 C 164.230469 140.253906 165.789062 139.519531 167.382812 138.859375 C 168.976562 138.195312 170.601562 137.617188 172.25 137.113281 C 173.902344 136.613281 175.574219 136.195312 177.265625 135.859375 C 178.960938 135.519531 180.664062 135.269531 182.382812 135.097656 C 184.097656 134.929688 185.820312 134.84375 187.546875 134.84375 C 189.269531 134.84375 190.992188 134.929688 192.710938 135.097656 C 194.425781 135.269531 196.132812 135.519531 197.824219 135.859375 C 199.515625 136.195312 201.1875 136.613281 202.839844 137.113281 C 204.492188 137.617188 206.113281 138.195312 207.707031 138.859375 C 209.300781 139.519531 210.859375 140.253906 212.382812 141.070312 C 213.902344 141.882812 215.382812 142.769531 216.816406 143.730469 C 218.25 144.6875 219.636719 145.714844 220.96875 146.808594 C 222.300781 147.90625 223.578125 149.0625 224.800781 150.285156 C 226.019531 151.503906 227.175781 152.78125 228.273438 154.117188 C 229.367188 155.449219 230.394531 156.835938 231.351562 158.273438 C 232.308594 159.707031 233.195312 161.1875 234.011719 162.707031 C 234.824219 164.230469 235.558594 165.789062 236.21875 167.382812 C 236.882812 168.980469 237.460938 170.601562 237.960938 172.253906 C 238.464844 173.90625 238.882812 175.578125 239.21875 177.273438 C 239.554688 178.964844 239.808594 180.671875 239.976562 182.390625 C 240.144531 184.105469 240.230469 185.828125 240.230469 187.554688 Z M 240.230469 187.554688 " fill-opacity="1" fill-rule="nonzero"/><path fill="#ffffff" d="M 179.824219 175.726562 L 177.164062 167.769531 C 177.011719 167.316406 176.8125 166.882812 176.570312 166.46875 C 176.324219 166.054688 176.042969 165.671875 175.71875 165.320312 C 175.394531 164.96875 175.035156 164.652344 174.644531 164.378906 C 174.253906 164.101562 173.839844 163.867188 173.398438 163.679688 C 172.957031 163.488281 172.503906 163.347656 172.035156 163.253906 C 171.5625 163.160156 171.089844 163.117188 170.609375 163.125 C 170.132812 163.132812 169.660156 163.191406 169.191406 163.296875 C 168.726562 163.40625 168.277344 163.558594 167.839844 163.761719 L 163.546875 165.761719 C 162.847656 166.089844 162.222656 166.523438 161.667969 167.0625 C 161.117188 167.601562 160.667969 168.21875 160.328125 168.910156 C 159.984375 169.601562 159.765625 170.332031 159.671875 171.097656 C 159.574219 171.863281 159.609375 172.625 159.773438 173.378906 C 162.460938 185.816406 172.34375 215.59375 205.699219 219.304688 C 206.363281 219.378906 207.019531 219.355469 207.675781 219.234375 C 208.332031 219.117188 208.957031 218.90625 209.546875 218.601562 C 210.140625 218.296875 210.679688 217.917969 211.160156 217.457031 C 211.640625 216.992188 212.046875 216.472656 212.375 215.894531 L 214.589844 211.980469 C 214.808594 211.589844 214.988281 211.183594 215.128906 210.761719 C 215.269531 210.335938 215.363281 209.902344 215.417969 209.457031 C 215.472656 209.015625 215.484375 208.570312 215.453125 208.125 C 215.417969 207.679688 215.34375 207.242188 215.222656 206.8125 C 215.105469 206.378906 214.945312 205.964844 214.742188 205.566406 C 214.542969 205.167969 214.304688 204.792969 214.03125 204.441406 C 213.753906 204.089844 213.449219 203.765625 213.109375 203.476562 C 212.773438 203.183594 212.410156 202.925781 212.019531 202.707031 L 211.972656 202.679688 L 206.027344 199.375 C 205.386719 199.015625 204.699219 198.769531 203.976562 198.632812 C 203.253906 198.5 202.527344 198.480469 201.796875 198.582031 C 201.066406 198.683594 200.371094 198.894531 199.710938 199.222656 C 199.050781 199.546875 198.460938 199.972656 197.9375 200.488281 C 197.417969 201.003906 196.832031 201.425781 196.175781 201.753906 C 195.519531 202.078125 194.832031 202.292969 194.105469 202.394531 C 193.382812 202.5 192.660156 202.484375 191.9375 202.355469 C 191.21875 202.222656 190.539062 201.980469 189.894531 201.628906 C 186.28125 199.644531 181.324219 196.253906 177.851562 191.246094 C 177.460938 190.6875 177.160156 190.082031 176.953125 189.429688 C 176.742188 188.777344 176.632812 188.109375 176.625 187.425781 C 176.617188 186.742188 176.710938 186.070312 176.902344 185.414062 C 177.097656 184.757812 177.382812 184.144531 177.761719 183.574219 L 179.039062 181.652344 C 179.621094 180.777344 179.980469 179.820312 180.117188 178.78125 C 180.253906 177.738281 180.15625 176.71875 179.824219 175.726562 Z M 179.824219 175.726562 " fill-opacity="1" fill-rule="nonzero"/></svg>